<?xml version="1.0" encoding="UTF-8"?>
<svg width="28px" height="32px" viewBox="0 0 28 32" version="1.1" xmlns="http://www.w3.org/2000/svg" xmlns:xlink="http://www.w3.org/1999/xlink">
    <!-- Generator: Sketch 41.1 (35376) - http://www.bohemiancoding.com/sketch -->
    <title>Page 1</title>
    <desc>Created with Sketch.</desc>
    <defs>
        <polygon id="path-1" points="21.2230919 0.542594595 0.556064865 0.542594595 0.556064865 31.0269514 21.2230919 31.0269514 21.2230919 0.542594595"></polygon>
        <polygon id="path-3" points="2.828 10.9340757 2.828 0.617967568 0.0849081081 0.617967568 0.0849081081 10.9340757"></polygon>
    </defs>
    <g id="Page-2" stroke="none" stroke-width="1" fill="none" fill-rule="evenodd">
        <g id="Page-1">
            <g id="Group-3" transform="translate(3.027027, 0.214465)">
                <mask id="mask-2" fill="white">
                    <use xlink:href="#path-1"></use>
                </mask>
                <g id="Clip-2"></g>
                <path d="M19.2419027,2.36176216 C18.5676324,2.36176216 17.9728216,4.06900541 17.6148757,6.67678919 C17.5823351,6.91214054 17.2425514,6.91214054 17.2100108,6.67678919 C16.7408216,3.22370811 15.968173,0.970086486 15.0948757,0.970086486 C14.4539027,0.970086486 13.8666595,2.18846486 13.4141189,4.20673514 C13.3672,4.41711351 13.0682811,4.41938378 13.0168216,4.20976216 C12.4568216,1.9236 11.7288216,0.542518919 10.9327135,0.542518919 C10.1229838,0.542518919 9.38438919,1.97505946 8.82060541,4.33765405 C8.77065946,4.54878919 8.46871351,4.54576216 8.42255135,4.33387027 C7.96622703,2.23992432 7.36763243,0.970086486 6.71228108,0.970086486 C5.83065946,0.970086486 5.0512,3.2728973 4.58352432,6.7903027 C4.5524973,7.02641081 4.21044324,7.02641081 4.17865946,6.7903027 C3.82222703,4.11895135 3.21984865,2.36176216 2.5364973,2.36176216 C1.44222703,2.36176216 0.556064865,6.86143784 0.556064865,12.4099784 C0.556064865,17.9600324 1.44222703,22.4566811 2.5364973,22.4566811 C3.07152432,22.4566811 3.55736216,21.380573 3.91379459,19.6309514 C3.96071351,19.3993838 4.29898378,19.420573 4.31714595,19.6559243 C4.70611892,24.5680324 5.63238919,28.0248973 6.71228108,28.0248973 C7.23671351,28.0248973 7.72406486,27.2128973 8.13195676,25.8174378 C8.1924973,25.6108432 8.4899027,25.6274919 8.5284973,25.838627 C9.11498378,29.0192757 9.97465946,31.0269514 10.9327135,31.0269514 C11.880173,31.0269514 12.7315243,29.0707351 13.3172541,25.9612216 C13.3573622,25.7516 13.6517405,25.7349514 13.7130378,25.9392757 C14.1133622,27.2598162 14.5870919,28.0248973 15.0948757,28.0248973 C16.1687135,28.0248973 17.0896865,24.6187351 17.4832,19.7641405 C17.5021189,19.5295459 17.8381189,19.5076 17.8865514,19.7384108 C18.2407135,21.4244649 18.7174703,22.4566811 19.2419027,22.4566811 C20.3346595,22.4566811 21.2230919,17.9600324 21.2230919,12.4099784 C21.2230919,6.86143784 20.3346595,2.36176216 19.2419027,2.36176216" id="Fill-1" fill="#000000" mask="url(#mask-2)"></path>
            </g>
            <path d="M1.37222703,6.12972973 C0.612443243,6.12972973 0.000227027027,8.43935135 0.000227027027,11.2877838 C0.000227027027,14.1377297 0.612443243,16.4458378 1.37222703,16.4458378 C2.12898378,16.4458378 2.74347027,14.1377297 2.74347027,11.2877838 C2.74347027,8.43935135 2.12898378,6.12972973 1.37222703,6.12972973" id="Fill-4" fill="#000000"></path>
            <g id="Group-8" transform="translate(24.972973, 5.511762)">
                <mask id="mask-4" fill="white">
                    <use xlink:href="#path-3"></use>
                </mask>
                <g id="Clip-7"></g>
                <path d="M1.45690811,0.617967568 C0.697124324,0.617967568 0.0849081081,2.92758919 0.0849081081,5.77602162 C0.0849081081,8.62596757 0.697124324,10.9340757 1.45690811,10.9340757 C2.21366486,10.9340757 2.82815135,8.62596757 2.82815135,5.77602162 C2.82815135,2.92758919 2.21366486,0.617967568 1.45690811,0.617967568" id="Fill-6" fill="#000000" mask="url(#mask-4)"></path>
            </g>
            <path d="M12.0523351,14.3667243 C12.0523351,15.3346162 11.2645514,16.1216432 10.2966595,16.1216432 C9.32876757,16.1216432 8.54174054,15.3346162 8.54174054,14.3667243 C8.54174054,13.3988324 9.32876757,12.6110486 10.2966595,12.6110486 C11.2645514,12.6110486 12.0523351,13.3988324 12.0523351,14.3667243 M12.6887676,8.35807568 C12.3376324,8.35807568 12.0523351,8.64337297 12.0523351,8.99375135 L12.0523351,11.9012108 C11.5415243,11.5372108 10.9262811,11.3389405 10.2966595,11.3389405 C8.62725405,11.3389405 7.26887568,12.6973189 7.26887568,14.3667243 C7.26887568,16.0361297 8.62725405,17.3945081 10.2966595,17.3945081 C11.9668216,17.3945081 13.3252,16.0361297 13.3252,14.3667243 L13.3252,8.99375135 C13.3252,8.64337297 13.0399027,8.35807568 12.6887676,8.35807568" id="Fill-9" fill="#FFFFFF"></path>
            <path d="M19.8958919,11.7424432 C19.5447568,11.7424432 19.2594595,12.0277405 19.2594595,12.3788757 L19.2594595,14.3668757 C19.2594595,15.3347676 18.4724324,16.1217946 17.5045405,16.1217946 C16.5366486,16.1217946 15.7488649,15.3347676 15.7488649,14.3668757 L15.7488649,12.3788757 C15.7488649,12.0277405 15.4635676,11.7424432 15.1124324,11.7424432 C14.7620541,11.7424432 14.476,12.0277405 14.476,12.3788757 L14.476,14.3668757 C14.476,16.0362811 15.8343784,17.3946595 17.5045405,17.3946595 C19.1739459,17.3946595 20.5323243,16.0362811 20.5323243,14.3668757 L20.5323243,12.3788757 C20.5323243,12.0277405 20.247027,11.7424432 19.8958919,11.7424432" id="Fill-11" fill="#FFFFFF"></path>
        </g>
    </g>
</svg>