<?xml version="1.0" encoding="UTF-8"?>
<svg width="181px" height="52px" viewBox="0 0 181 52" version="1.1" xmlns="http://www.w3.org/2000/svg" xmlns:xlink="http://www.w3.org/1999/xlink">
    <!-- Generator: Sketch 41.1 (35376) - http://www.bohemiancoding.com/sketch -->
    <title>Page 1</title>
    <desc>Created with Sketch.</desc>
    <defs>
        <polygon id="path-1" points="35.5314269 0.908404877 0.93095663 0.908404877 0.93095663 51.9449221 35.5314269 51.9449221 35.5314269 0.908404877"></polygon>
    </defs>
    <g id="Page-2" stroke="none" stroke-width="1" fill="none" fill-rule="evenodd">
        <g id="Page-1" transform="translate(0.000000, -1.000000)">
            <g id="Group-3" transform="translate(5.067810, 0.359054)">
                <mask id="mask-2" fill="white">
                    <use xlink:href="#path-1"></use>
                </mask>
                <g id="Clip-2"></g>
                <path d="M32.2145455,3.95403177 C31.0856909,3.95403177 30.0898663,6.81227641 29.4905978,11.1781944 C29.4361189,11.5722166 28.8672572,11.5722166 28.8127783,11.1781944 C28.0272678,5.39709057 26.7337094,1.62410629 25.2716463,1.62410629 C24.1985376,1.62410629 23.2153826,3.66389967 22.457745,7.04286175 C22.379194,7.39507452 21.8787478,7.39887537 21.792595,7.04792956 C20.8550502,3.22046633 19.636242,0.908278182 18.3034081,0.908278182 C16.947769,0.908278182 15.7112234,3.30661909 14.7673439,7.26204451 C14.683725,7.61552424 14.178211,7.61045643 14.1009269,7.25570975 C13.3369546,3.75005244 12.3347953,1.62410629 11.2376145,1.62410629 C9.76161492,1.62410629 8.45665394,5.47944247 7.67367735,11.3682373 C7.6217323,11.7635264 7.04906981,11.7635264 6.99585781,11.3682373 C6.39912323,6.89589527 5.39062911,3.95403177 4.24657108,3.95403177 C2.4145579,3.95403177 0.93095663,11.4873308 0.93095663,20.7766259 C0.93095663,30.0684548 2.4145579,37.596686 4.24657108,37.596686 C5.14230644,37.596686 5.95568988,35.7950797 6.55242447,32.8658857 C6.63097552,32.4781983 7.19730324,32.513673 7.2277101,32.9076952 C7.87892364,41.1314833 9.42967339,46.9189219 11.2376145,46.9189219 C12.1156125,46.9189219 12.9315298,45.5594819 13.6144172,43.2232217 C13.7157734,42.8773437 14.2136857,42.9052166 14.2783003,43.2586964 C15.2601884,48.5836973 16.6994463,51.9449221 18.3034081,51.9449221 C19.8896325,51.9449221 21.3149539,48.6698501 22.2955751,43.4639426 C22.3627236,43.1129968 22.8555681,43.0851239 22.9581912,43.427201 C23.628409,45.638033 24.4215212,46.9189219 25.2716463,46.9189219 C27.0694518,46.9189219 28.6113329,41.2163691 29.2701481,33.0888694 C29.3018219,32.6961141 29.8643488,32.6593725 29.9454337,33.045793 C30.5383675,35.868563 31.3365475,37.596686 32.2145455,37.596686 C34.0440248,37.596686 35.5314269,30.0684548 35.5314269,20.7766259 C35.5314269,11.4873308 34.0440248,3.95403177 32.2145455,3.95403177" id="Fill-1" fill="#FF0F50" mask="url(#mask-2)"></path>
            </g>
            <path d="M2.2973648,10.2623145 C1.02534458,10.2623145 0.000380085723,14.1290533 0.000380085723,18.8978621 C0.000380085723,23.6692049 1.02534458,27.5334098 2.2973648,27.5334098 C3.56431721,27.5334098 4.59308257,23.6692049 4.59308257,18.8978621 C4.59308257,14.1290533 3.56431721,10.2623145 2.2973648,10.2623145" id="Fill-4" fill="#FF0F50"></path>
            <path d="M44.2485663,10.2623145 C42.9765461,10.2623145 41.9515816,14.1290533 41.9515816,18.8978621 C41.9515816,23.6692049 42.9765461,27.5334098 44.2485663,27.5334098 C45.5155187,27.5334098 46.544284,23.6692049 46.544284,18.8978621 C46.544284,14.1290533 45.5155187,10.2623145 44.2485663,10.2623145" id="Fill-6" fill="#FF0F50"></path>
            <path d="M20.1778642,24.0525847 C20.1778642,25.6730168 18.8589667,26.9906473 17.2385346,26.9906473 C15.6181024,26.9906473 14.3004719,25.6730168 14.3004719,24.0525847 C14.3004719,22.4321526 15.6181024,21.1132551 17.2385346,21.1132551 C18.8589667,21.1132551 20.1778642,22.4321526 20.1778642,24.0525847 M21.2433711,13.9929826 C20.6555052,13.9929826 20.1778642,14.4706236 20.1778642,15.0572226 L20.1778642,19.9248538 C19.3226713,19.3154496 18.292639,18.9835081 17.2385346,18.9835081 C14.4436375,18.9835081 12.169458,21.2576877 12.169458,24.0525847 C12.169458,26.8474817 14.4436375,29.1216613 17.2385346,29.1216613 C20.0346985,29.1216613 22.3088781,26.8474817 22.3088781,24.0525847 L22.3088781,15.0572226 C22.3088781,14.4706236 21.831237,13.9929826 21.2433711,13.9929826" id="Fill-8" fill="#FFFFFF"></path>
            <path d="M33.3094458,19.6590471 C32.7215799,19.6590471 32.2439388,20.1366882 32.2439388,20.7245541 L32.2439388,24.0528381 C32.2439388,25.6732702 30.9263083,26.9909007 29.3058762,26.9909007 C27.685444,26.9909007 26.3665466,25.6732702 26.3665466,24.0528381 L26.3665466,20.7245541 C26.3665466,20.1366882 25.8889055,19.6590471 25.3010396,19.6590471 C24.7144406,19.6590471 24.2355326,20.1366882 24.2355326,20.7245541 L24.2355326,24.0528381 C24.2355326,26.8477351 26.5097122,29.1219147 29.3058762,29.1219147 C32.1007732,29.1219147 34.3749528,26.8477351 34.3749528,24.0528381 L34.3749528,20.7245541 C34.3749528,20.1366882 33.8973117,19.6590471 33.3094458,19.6590471" id="Fill-10" fill="#FFFFFF"></path>
            <path d="M158.656016,38.3866309 C158.414028,38.3866309 158.17204,38.2852747 158.001001,38.0876301 C157.689331,37.7265487 157.729874,37.1804922 158.090955,36.8688219 C167.106588,29.0872002 168.313994,16.5164984 168.325397,16.3910701 C168.367206,15.9159629 168.7853,15.5650171 169.261674,15.6055596 C169.736782,15.647369 170.087727,16.0667303 170.047185,16.5418374 C170.034515,16.6774013 169.738049,19.9309351 168.263316,24.2309716 C166.900075,28.2092022 164.223005,33.858543 159.21981,38.1763168 C159.056373,38.3182154 158.856194,38.3866309 158.656016,38.3866309" id="Fill-12" fill="#030000"></path>
            <g id="Group-16" transform="translate(167.237718, 20.630293)" fill="#030000">
                <path d="M12.1154858,17.756338 C11.8468919,17.756338 11.5820988,17.6309097 11.4135942,17.3965235 L0.389841256,2.076535 C0.111111726,1.68884756 0.199798395,1.14912583 0.587485832,0.870396305 C0.973906317,0.591666775 1.51362804,0.679086491 1.79235757,1.06677393 L12.8161105,16.3880294 C13.09484,16.7744499 13.0061533,17.3154386 12.6197329,17.5941681 C12.4664316,17.703126 12.2903252,17.756338 12.1154858,17.756338" id="Fill-14"></path>
            </g>
            <path d="M81.3461998,17.51397 L62.200015,17.51397 C61.7236409,17.51397 61.3359534,17.1275495 61.3359534,16.6499085 C61.3359534,16.1722674 61.7236409,15.7858469 62.200015,15.7858469 L81.3461998,15.7858469 C81.8238408,15.7858469 82.2102613,16.1722674 82.2102613,16.6499085 C82.2102613,17.1275495 81.8238408,17.51397 81.3461998,17.51397" id="Fill-17" fill="#030000"></path>
            <polygon id="Fill-19" fill="#030000" points="71.8245456 22.229947 70.1661049 21.7459711 71.7219225 16.4083006 73.3803632 16.8922765"></polygon>
            <path d="M65.3780384,22.6577968 C64.7293587,22.6577968 64.2010396,23.186116 64.2010396,23.8347956 L64.2010396,35.4818891 C64.2010396,36.1305687 64.7293587,36.6588879 65.3780384,36.6588879 L78.1679229,36.6588879 C78.8178695,36.6588879 79.3449217,36.1305687 79.3449217,35.4818891 L79.3449217,23.8347956 C79.3449217,23.186116 78.8178695,22.6577968 78.1679229,22.6577968 L65.3780384,22.6577968 Z M78.1679229,38.387011 L65.3780384,38.387011 C63.7766105,38.387011 62.4729165,37.0833169 62.4729165,35.4818891 L62.4729165,23.8347956 C62.4729165,22.2333677 63.7766105,20.9296737 65.3780384,20.9296737 L78.1679229,20.9296737 C79.7706177,20.9296737 81.0730448,22.2333677 81.0730448,23.8347956 L81.0730448,35.4818891 C81.0730448,37.0833169 79.7706177,38.387011 78.1679229,38.387011 L78.1679229,38.387011 Z" id="Fill-21" fill="#030000"></path>
            <path d="M80.2092367,30.5221505 L63.3372314,30.5221505 C62.8595904,30.5221505 62.4731699,30.13573 62.4731699,29.6580889 C62.4731699,29.1804479 62.8595904,28.7940274 63.3372314,28.7940274 L80.2092367,28.7940274 C80.6868777,28.7940274 81.0732982,29.1804479 81.0732982,29.6580889 C81.0732982,30.13573 80.6868777,30.5221505 80.2092367,30.5221505" id="Fill-23" fill="#030000"></path>
            <path d="M86.3829691,33.4785839 C85.905328,33.4785839 85.5189075,33.0921634 85.5189075,32.6145224 L85.5189075,19.8436421 C85.5189075,18.2422143 86.8226015,16.9385202 88.4240294,16.9385202 L105.529154,16.9385202 C106.005528,16.9385202 106.393215,17.3249407 106.393215,17.8025818 C106.393215,18.2802228 106.005528,18.6666433 105.529154,18.6666433 L88.4240294,18.6666433 C87.7753498,18.6666433 87.2470306,19.1949625 87.2470306,19.8436421 L87.2470306,32.6145224 C87.2470306,33.0921634 86.8606101,33.4785839 86.3829691,33.4785839" id="Fill-25" fill="#030000"></path>
            <path d="M105.528774,23.5171706 L89.4232748,23.5171706 C88.9456337,23.5171706 88.5592132,23.1307501 88.5592132,22.6531091 C88.5592132,22.175468 88.9456337,21.7890475 89.4232748,21.7890475 L105.528774,21.7890475 C106.006415,21.7890475 106.392835,22.175468 106.392835,22.6531091 C106.392835,23.1307501 106.006415,23.5171706 105.528774,23.5171706" id="Fill-27" fill="#030000"></path>
            <path d="M92.9205702,30.4762868 C94.0139501,31.350484 95.6103102,32.5046776 97.6234975,33.6284644 C99.6404858,32.5008768 101.167163,31.3454162 102.184526,30.4762868 L92.9205702,30.4762868 Z M105.529281,38.5341041 C105.463399,38.5341041 105.394984,38.5265024 105.327835,38.510032 C102.391039,37.8081404 99.8001218,36.7426334 97.6247645,35.608711 C95.4354707,36.7426334 92.7634681,37.8068734 89.6125574,38.5125659 C89.146319,38.617723 88.6851483,38.325057 88.5799912,37.8588185 C88.4761011,37.39258 88.7687671,36.9314093 89.2350056,36.8262523 C91.7309019,36.2675263 93.9176617,35.4617445 95.7838826,34.5774118 C92.2148777,32.440063 90.1459444,30.363528 90.0027788,30.2178285 C89.758257,29.9695058 89.6873076,29.5995557 89.8216046,29.2777498 C89.9571685,28.9572109 90.2701057,28.7481637 90.6185177,28.7481637 L104.347214,28.7481637 C104.68549,28.7481637 104.99336,28.9458083 105.133991,29.2536777 C105.273356,29.5615472 105.221411,29.9238956 104.999694,30.178553 C104.871732,30.3255195 103.01438,32.4248596 99.4567777,34.5799457 C101.298926,35.4668123 103.404601,36.273861 105.729459,36.8300531 C106.194431,36.940278 106.479495,37.4065165 106.36927,37.8702211 C106.274249,38.2667772 105.919502,38.5341041 105.529281,38.5341041 L105.529281,38.5341041 Z" id="Fill-29" fill="#030000"></path>
            <path d="M95.9860882,18.5168895 C95.5084472,18.5168895 95.1220267,18.1304691 95.1220267,17.652828 L95.1220267,15.9006328 C95.1220267,15.4242587 95.5084472,15.0365713 95.9860882,15.0365713 C96.4637293,15.0365713 96.8501498,15.4242587 96.8501498,15.9006328 L96.8501498,17.652828 C96.8501498,18.1304691 96.4637293,18.5168895 95.9860882,18.5168895" id="Fill-31" fill="#030000"></path>
            <path d="M85.0861166,38.3868843 C85.0126333,38.3868843 84.9391501,38.3780156 84.8643999,38.3577444 C84.4032292,38.2361169 84.1283006,37.7635437 84.249928,37.302373 L85.5472873,32.3941994 C85.6701816,31.9330287 86.1427549,31.6568331 86.6039256,31.7797274 C87.0650962,31.9013549 87.3400249,32.3739281 87.2183975,32.8350988 L85.9210382,37.7432724 C85.8184151,38.1309599 85.4687362,38.3868843 85.0861166,38.3868843" id="Fill-33" fill="#030000"></path>
            <path d="M102.782528,26.9539057 L92.1198563,26.9539057 C91.6434822,26.9539057 91.2557947,26.5674852 91.2557947,26.0898442 L91.2557947,20.4481051 C91.2557947,19.971731 91.6434822,19.5840436 92.1198563,19.5840436 C92.5974973,19.5840436 92.9839178,19.971731 92.9839178,20.4481051 L92.9839178,25.2257826 L101.918466,25.2257826 L101.918466,20.4481051 C101.918466,19.971731 102.304887,19.5840436 102.782528,19.5840436 C103.260169,19.5840436 103.646589,19.971731 103.646589,20.4481051 L103.646589,26.0898442 C103.646589,26.5674852 103.260169,26.9539057 102.782528,26.9539057" id="Fill-35" fill="#030000"></path>
            <path d="M149.091032,18.6668967 C148.708412,18.6668967 148.358733,18.4109723 148.25611,18.0245518 C148.134483,17.5633812 148.409412,17.089541 148.870582,16.9679135 L153.346725,15.7807791 C153.807896,15.6578847 154.280469,15.9328134 154.403363,16.3939841 C154.524991,16.8551548 154.250062,17.328995 153.788891,17.4506224 L149.312749,18.6377568 C149.239265,18.658028 149.164515,18.6668967 149.091032,18.6668967" id="Fill-37" fill="#030000"></path>
            <path d="M154.390567,27.5458259 L136.834408,27.5458259 C135.231713,27.5458259 133.929286,26.2421319 133.929286,24.640704 L133.929286,19.8440222 C133.929286,18.2413274 135.231713,16.9389003 136.834408,16.9389003 L149.092172,16.9389003 C149.568546,16.9389003 149.954967,17.3253208 149.954967,17.8029619 C149.954967,18.279336 149.568546,18.6670234 149.092172,18.6670234 L136.834408,18.6670234 C136.184461,18.6670234 135.657409,19.1940756 135.657409,19.8440222 L135.657409,24.640704 C135.657409,25.2893836 136.184461,25.8177028 136.834408,25.8177028 L154.390567,25.8177028 C154.868208,25.8177028 155.254629,26.2041233 155.254629,26.6817643 C155.254629,27.1594054 154.868208,27.5458259 154.390567,27.5458259" id="Fill-39" fill="#030000"></path>
            <path d="M142.822405,38.3866309 L140.638179,38.3866309 C140.161805,38.3866309 139.774117,38.0002104 139.774117,37.5225693 C139.774117,37.0449283 140.161805,36.6585078 140.638179,36.6585078 L142.822405,36.6585078 C143.471084,36.6585078 143.999404,36.1301886 143.999404,35.481509 L143.999404,20.4478517 C143.999404,19.9714776 144.385824,19.5837902 144.863465,19.5837902 C145.339839,19.5837902 145.727527,19.9714776 145.727527,20.4478517 L145.727527,35.481509 C145.727527,37.0829368 144.423833,38.3866309 142.822405,38.3866309" id="Fill-41" fill="#030000"></path>
            <path d="M134.792841,37.9766451 C134.682616,37.9766451 134.569857,37.9551069 134.460899,37.9094966 C134.02,37.7257885 133.812219,37.2202745 133.995927,36.779375 L137.124033,29.2790168 C137.309008,28.8393843 137.814522,28.6316041 138.254155,28.8153122 C138.695054,28.9990203 138.902834,29.5045343 138.719126,29.9454337 L135.591021,37.4445251 C135.452923,37.7764666 135.131117,37.9766451 134.792841,37.9766451" id="Fill-43" fill="#030000"></path>
            <path d="M154.787883,37.9766451 C154.449607,37.9766451 154.127801,37.7764666 153.989703,37.4445251 L150.861598,29.9454337 C150.67789,29.5045343 150.88567,28.9990203 151.326569,28.8153122 C151.766202,28.6316041 152.272983,28.8393843 152.456691,29.2790168 L155.584797,36.779375 C155.768505,37.2202745 155.560724,37.7257885 155.119825,37.9094966 C155.010867,37.9551069 154.898108,37.9766451 154.787883,37.9766451" id="Fill-45" fill="#030000"></path>
            <path d="M129.29224,18.66677 L110.972108,18.66677 C110.495734,18.66677 110.108047,18.2803495 110.108047,17.8027085 C110.108047,17.3250674 110.495734,16.9386469 110.972108,16.9386469 L129.29224,16.9386469 C129.769881,16.9386469 130.156301,17.3250674 130.156301,17.8027085 C130.156301,18.2803495 129.769881,18.66677 129.29224,18.66677" id="Fill-47" fill="#030000"></path>
            <path d="M129.713375,24.9343836 L110.55072,24.9343836 C110.074346,24.9343836 109.686658,24.5479631 109.686658,24.070322 C109.686658,23.592681 110.074346,23.2062605 110.55072,23.2062605 L129.713375,23.2062605 C130.191016,23.2062605 130.577436,23.592681 130.577436,24.070322 C130.577436,24.5479631 130.191016,24.9343836 129.713375,24.9343836" id="Fill-49" fill="#030000"></path>
            <path d="M115.594077,24.8266926 C115.23553,24.8266926 114.901054,24.602442 114.77816,24.2451615 L113.563152,20.7306355 C113.407317,20.2796004 113.646771,19.7880229 114.097806,19.6321877 C114.548841,19.4763526 115.040419,19.7145397 115.196254,20.1655747 L116.411261,23.6801007 C116.567097,24.1311358 116.327643,24.6227133 115.876608,24.7785484 C115.782853,24.8114892 115.687832,24.8266926 115.594077,24.8266926" id="Fill-51" fill="#030000"></path>
            <path d="M124.670524,24.8266926 C124.57677,24.8266926 124.481748,24.8114892 124.387994,24.7785484 C123.936959,24.6227133 123.697505,24.1311358 123.85334,23.6801007 L125.068347,20.1655747 C125.224182,19.7145397 125.71576,19.4750856 126.166795,19.6321877 C126.61783,19.7880229 126.857284,20.2796004 126.701449,20.7306355 L125.487709,24.2451615 C125.363547,24.602442 125.029072,24.8266926 124.670524,24.8266926" id="Fill-53" fill="#030000"></path>
            <path d="M113.946025,28.570537 C113.297346,28.570537 112.769027,29.0988561 112.769027,29.7475358 L112.769027,35.4817624 C112.769027,36.130442 113.297346,36.6587612 113.946025,36.6587612 L126.319083,36.6587612 C126.967762,36.6587612 127.496082,36.130442 127.496082,35.4817624 L127.496082,29.7475358 C127.496082,29.0988561 126.967762,28.570537 126.319083,28.570537 L113.946025,28.570537 Z M126.319083,38.3868843 L113.946025,38.3868843 C112.344598,38.3868843 111.040904,37.0831902 111.040904,35.4817624 L111.040904,29.7475358 C111.040904,28.1461079 112.344598,26.8424139 113.946025,26.8424139 L126.319083,26.8424139 C127.920511,26.8424139 129.222938,28.1461079 129.222938,29.7475358 L129.222938,35.4817624 C129.222938,37.0831902 127.920511,38.3868843 126.319083,38.3868843 L126.319083,38.3868843 Z" id="Fill-55" fill="#030000"></path>
            <path d="M128.191512,33.4785839 L112.073343,33.4785839 C111.595702,33.4785839 111.209282,33.0921634 111.209282,32.6145224 C111.209282,32.1368813 111.595702,31.7504608 112.073343,31.7504608 L128.191512,31.7504608 C128.669153,31.7504608 129.055573,32.1368813 129.055573,32.6145224 C129.055573,33.0921634 128.669153,33.4785839 128.191512,33.4785839" id="Fill-57" fill="#030000"></path>
            <path d="M120.132301,18.3007475 C119.65466,18.3007475 119.268239,17.914327 119.268239,17.4366859 L119.268239,15.9011396 C119.268239,15.4234985 119.65466,15.0370781 120.132301,15.0370781 C120.609942,15.0370781 120.996362,15.4234985 120.996362,15.9011396 L120.996362,17.4366859 C120.996362,17.914327 120.609942,18.3007475 120.132301,18.3007475" id="Fill-59" fill="#030000"></path>
        </g>
    </g>
</svg>